PathFileType	4	(X/Y/Z)
DataRate	CameraRate	NumFrames	NumMarkers	Units	OrigDataRate	OrigDataStartFrame	OrigNumFrames	
	120.0	120.0	4	39	mm	120.0	79	104
Frame#	Time	midhip	hip_r	hip_l	knee_r	knee_l	ankle_r	ankle_l	midasis	asis_r	asis_l	psis_r	psis_l	epicondLat_r	epicondLat_l	epicondMed_r	epicondMed_l	malleolusLat_r	malleolusLat_l	malleolusMedv_r	malleolusMedv_l	heel_r	heel_l	sternalnotch	xyphoidprocess	neck	subclavicle_r	subclavicle_l	toe_r	toe_l	thighwand_r	thighwand_l	upperleg1_r	upperleg1_l	upperleg2_r	upperleg2_l	shankwand_r	shankwand_l	lowerleg1_r	lowerleg1_l
	X1	Y1	Z1	X2	Y2	Z2	X3	Y3	Z3	X4	Y4	Z4	X5	Y5	Z5	X6	Y6	Z6	X7	Y7	Z7	X8	Y8	Z8	X9	Y9	Z9	X10	Y10	Z10	X11	Y11	Z11	X12	Y12	Z12	X13	Y13	Z13	X14	Y14	Z14	X15	Y15	Z15	X16	Y16	Z16	X17	Y17	Z17	X18	Y18	Z18	X19	Y19	Z19	X20	Y20	Z20	X21	Y21	Z21	X22	Y22	Z22	X23	Y23	Z23	X24	Y24	Z24	X25	Y25	Z25	X26	Y26	Z26	X27	Y27	Z27	X28	Y28	Z28	X29	Y29	Z29	X30	Y30	Z30	X31	Y31	Z31	X32	Y32	Z32	X33	Y33	Z33	X34	Y34	Z34	X35	Y35	Z35	X36	Y36	Z36	X37	Y37	Z37	X38	Y38	Z38	X39	Y39	Z39

	79	0.65833	1478.293	905.434	-249.076	1465.800	880.306	-179.226	1473.625	883.397	-329.420	1442.938	470.321	-136.045	1433.205	460.315	-354.024	1406.937	69.166	-130.233	1383.621	71.267	-363.340	1565.058	961.010	-247.727	1558.869	958.565	-128.933	1571.246	963.454	-366.521	1378.648	1017.698	-224.022	1388.540	1015.720	-309.818	1452.152	476.075	-76.529	1441.559	462.969	-413.380	1426.360	478.027	-185.903	1429.518	465.023	-304.721	1391.506	71.116	-91.219	1365.022	74.509	-399.735	1415.766	82.995	-157.874	1390.689	83.294	-338.347	1342.800	42.605	-144.026	1317.581	42.944	-352.205	1484.252	1369.498	-237.343	1566.800	1206.174	-248.343	1371.685	1435.946	-242.084	1494.120	1358.161	-184.602	1508.978	1365.106	-292.172	1525.783	39.506	-99.308	1500.579	41.105	-401.739	1505.710	591.378	-11.535	1595.599	553.142	-341.637	1522.071	652.188	-84.115	1536.599	618.904	-382.757	1513.001	564.052	-99.605	1512.035	535.847	-386.628	1417.939	205.294	-6.358	1407.103	211.472	-479.829	1406.125	172.174	-79.203	1386.126	174.054	-410.950
	80	0.66667	1478.250	905.349	-249.092	1465.885	880.362	-179.226	1473.683	883.379	-329.423	1442.954	470.336	-136.102	1433.161	460.316	-354.057	1406.929	69.164	-130.235	1383.621	71.281	-363.331	1565.086	961.085	-247.785	1558.920	958.699	-129.019	1571.252	963.470	-366.551	1378.649	1017.662	-224.124	1388.574	1015.673	-309.857	1452.164	476.080	-76.584	1441.539	462.970	-413.409	1426.264	478.018	-185.750	1429.482	465.533	-304.028	1391.496	71.121	-91.222	1365.037	74.515	-399.734	1415.742	82.967	-157.894	1390.607	83.240	-338.306	1342.784	42.606	-144.005	1317.595	42.938	-352.215	1484.292	1369.542	-237.379	1566.846	1206.219	-248.353	1371.757	1435.955	-242.071	1494.177	1358.222	-184.645	1509.002	1365.133	-292.206	1525.764	39.540	-99.323	1500.604	41.094	-401.734	1505.737	591.391	-11.615	1595.641	553.186	-341.714	1522.172	652.277	-84.242	1536.693	618.919	-382.737	1513.001	564.052	-99.605	1511.922	536.024	-386.355	1417.979	205.328	-6.377	1407.092	211.470	-479.830	1406.413	172.249	-79.360	1386.108	174.181	-410.937
	81	0.67500	1478.257	905.296	-249.165	1465.964	880.415	-179.225	1473.739	883.365	-329.425	1442.976	470.355	-136.154	1433.159	460.334	-354.097	1406.916	69.175	-130.234	1383.636	71.289	-363.328	1565.112	961.158	-247.838	1558.966	958.827	-129.097	1571.259	963.490	-366.579	1378.660	1017.615	-224.228	1388.613	1015.638	-309.934	1452.182	476.091	-76.634	1441.547	462.991	-413.448	1426.174	478.237	-185.758	1429.437	465.920	-303.773	1391.481	71.138	-91.223	1365.058	74.517	-399.735	1415.777	82.922	-157.900	1390.559	83.199	-338.343	1342.768	42.607	-143.988	1317.603	42.925	-352.218	1484.342	1369.569	-237.421	1566.852	1206.226	-248.416	1371.806	1436.019	-242.058	1494.233	1358.244	-184.688	1509.042	1365.157	-292.252	1525.735	39.568	-99.336	1500.623	41.096	-401.733	1505.753	591.407	-11.696	1595.703	553.237	-341.792	1522.345	652.398	-84.259	1536.828	618.977	-382.870	1513.017	564.110	-99.606	1511.913	536.123	-386.312	1418.013	205.356	-6.404	1407.072	211.474	-479.846	1406.360	172.282	-79.437	1386.115	174.249	-410.953
	82	0.68333	1478.322	905.279	-249.272	1466.037	880.466	-179.223	1473.790	883.353	-329.425	1443.006	470.375	-136.202	1433.187	460.359	-354.139	1406.904	69.196	-130.230	1383.662	71.288	-363.329	1565.135	961.228	-247.883	1559.007	958.946	-129.163	1571.264	963.511	-366.603	1378.687	1017.562	-224.323	1388.657	1015.611	-310.029	1452.206	476.102	-76.681	1441.576	463.022	-413.489	1426.244	478.230	-185.693	1429.398	466.138	-303.877	1391.465	71.166	-91.221	1365.084	74.513	-399.736	1415.813	82.924	-157.882	1390.744	83.310	-338.400	1342.751	42.606	-143.978	1317.607	42.910	-352.213	1484.403	1369.622	-237.466	1566.913	1206.288	-248.591	1371.822	1436.116	-242.148	1494.250	1358.233	-184.645	1509.147	1365.274	-292.384	1525.710	39.584	-99.344	1500.635	41.109	-401.737	1505.759	591.426	-11.779	1595.782	553.292	-341.872	1522.348	652.513	-84.221	1536.932	619.051	-383.217	1513.036	564.099	-99.561	1511.965	536.054	-386.491	1418.039	205.383	-6.438	1407.045	211.480	-479.871	1406.296	172.291	-79.368	1386.175	174.135	-410.903
